<?xml version="1.0" standalone="no"?>
<!DOCTYPE svg PUBLIC "-//W3C//DTD SVG 20010904//EN"
 "http://www.w3.org/TR/2001/REC-SVG-20010904/DTD/svg10.dtd">
<svg version="1.0" xmlns="http://www.w3.org/2000/svg"
 width="300.000000pt" height="300.000000pt" viewBox="0 0 300.000000 300.000000"
 preserveAspectRatio="xMidYMid meet">
<metadata>
Created by potrace 1.11, written by Peter Selinger 2001-2013
</metadata>
<g transform="translate(0.000000,300.000000) scale(0.100000,-0.100000)"
fill="#000000" stroke="none">
<path d="M2400 2648 c-22 -11 -40 -25 -41 -32 0 -6 -2 -19 -4 -28 -2 -9 4 -29
12 -44 8 -16 10 -30 5 -32 -5 -1 -40 -24 -78 -50 -76 -52 -94 -87 -51 -97 18
-5 39 4 85 36 61 41 62 41 88 25 14 -10 50 -19 81 -20 45 -2 60 1 77 18 88 85
23 225 -112 241 -12 1 -40 -7 -62 -17z"/>
<path d="M1851 2517 l-105 -69 -51 11 c-110 24 -305 32 -425 17 -25 -3 -67 -8
-95 -11 -27 -4 -78 -15 -112 -26 l-61 -20 -53 26 c-29 15 -62 29 -74 31 -36 6
-56 -26 -58 -92 -1 -69 11 -171 23 -194 10 -20 2 -58 -34 -164 -37 -108 -37
-107 -41 -219 -4 -123 12 -174 76 -239 47 -47 110 -75 143 -62 18 7 16 -10
-13 -94 -41 -119 -132 -421 -135 -448 -2 -16 -4 -40 -5 -53 -2 -49 -20 -6 -25
59 -10 140 -30 205 -86 284 -32 44 -113 112 -169 141 -49 25 -118 16 -148 -20
-13 -14 -21 -31 -18 -36 4 -5 2 -9 -3 -9 -25 0 17 -49 72 -85 51 -34 66 -50
93 -105 18 -36 34 -81 37 -100 3 -19 8 -46 10 -60 2 -14 7 -47 10 -75 14 -117
36 -166 105 -228 45 -40 144 -94 184 -99 15 -2 43 -24 70 -54 41 -45 105 -85
202 -125 32 -13 166 -47 215 -55 106 -17 233 -4 281 29 26 17 59 61 64 84 1 1
23 -5 50 -13 62 -18 165 -16 259 6 182 43 271 125 260 241 l-4 44 51 24 c67
31 101 83 107 162 3 43 0 65 -12 84 -25 38 -65 60 -113 61 l-43 1 -44 85 c-25
47 -43 88 -40 91 7 6 7 187 1 227 -20 125 -20 120 2 139 11 10 33 45 48 77 23
49 28 75 30 154 1 52 -4 122 -11 155 -15 73 -63 166 -116 226 -46 52 -50 61
-83 201 -28 117 -55 168 -89 165 -11 -1 -69 -32 -127 -70z"/>
</g>
</svg>
